<svg xmlns="http://www.w3.org/2000/svg" viewBox="0 0 756.04 683.96"><g id="Layer_16" data-name="Layer 16"><path d="M654,239c2.62,0,4.3,1.65,4.3,2.79V868.21c0,1.13-1.68,2.78-4.3,2.78h-83.4c-2.63,0-4.3-1.65-4.3-2.78V632.69c0-19.45-16.05-35.28-35.77-35.28H334.11c-19.73,0-35.77,15.83-35.77,35.28V868.21c0,1.13-1.68,2.78-4.3,2.78h-83.4c-2.63,0-4.3-1.65-4.3-2.78V241.82c0-1.14,1.67-2.79,4.3-2.79H294c2.62,0,4.3,1.65,4.3,2.79V477.34c0,19.45,16,35.28,35.77,35.28H530.57c19.72,0,35.77-15.83,35.77-35.28V241.82c0-1.14,1.67-2.79,4.3-2.79H654m0-26h-83.4c-16.73,0-30.3,12.89-30.3,28.79V477.34a9.54,9.54,0,0,1-9.77,9.28H334.11a9.54,9.54,0,0,1-9.77-9.28V241.82c0-15.9-13.57-28.79-30.3-28.79h-83.4c-16.73,0-30.3,12.89-30.3,28.79V868.21c0,15.9,13.57,28.78,30.3,28.78H294c16.73,0,30.3-12.88,30.3-28.78V632.69a9.53,9.53,0,0,1,9.77-9.28H530.57a9.54,9.54,0,0,1,9.77,9.28V868.21c0,15.9,13.57,28.78,30.3,28.78H654c16.73,0,30.3-12.88,30.3-28.78V241.82c0-15.9-13.57-28.79-30.3-28.79Z" transform="translate(-53.98 -213.03)"/></g><g id="Layer_17" data-name="Layer 17"><path d="M343.28,372.5l-1.67,98.8L456.77,333.74a12.37,12.37,0,0,1,20.2,1.75l62.3,107.87L731.73,780.55A12.38,12.38,0,0,1,719.43,799l-35.09-4.44v63l61.94,6.9c46.55,5.19,79.31-44.65,56.09-85.32L517.19,279.66c-20.11-35.22-69.44-39-94.63-7.18Z" transform="translate(-53.98 -213.03)"/><path d="M522.71,777.24l-.32,62L105.06,793.35c-45.71-5-67.15-59.17-37.29-94.14L180.34,567.42v97.39l-41.56,49.68a12.38,12.38,0,0,0,8.1,20.24Z" transform="translate(-53.98 -213.03)"/></g></svg>